<svg xmlns="http://www.w3.org/2000/svg" xmlns:xlink="http://www.w3.org/1999/xlink" width="24" height="24" viewBox="0 0 24 24">
    <defs>
        <path id="a" d="M20.433 16.3c-.894-.87-2.004-1.952-2.004-6.175 0-3.101-2.324-5.675-5.37-6.165a1.22 1.22 0 0 0 .227-.71C13.286 2.56 12.71 2 12 2c-.71 0-1.286.56-1.286 1.25 0 .264.084.508.228.71-3.047.49-5.37 3.064-5.37 6.165 0 4.223-1.111 5.305-2.005 6.174C2.355 17.477 3.214 19.5 4.93 19.5H9.43c0 1.38 1.15 2.5 2.571 2.5 1.42 0 2.571-1.12 2.571-2.5h4.498c1.713 0 2.578-2.02 1.364-3.2zM12 20.436c.178 0 .321.14.321.313a.317.317 0 0 1-.321.313c-.886 0-1.607-.701-1.607-1.563h.643c0 .517.432.938.964.938z"/>
    </defs>
    <g fill="none" fill-rule="evenodd">
        <mask id="b" fill="#fff">
            <use xlink:href="#a"/>
        </mask>
        <use fill="#000" fill-rule="nonzero" xlink:href="#a"/>
        <g fill="#928d8d" mask="url(#b)">
            <path d="M0 0h24v24H0z"/>
        </g>
    </g>
</svg>
